<?xml version="1.0" standalone="no"?>
<!DOCTYPE svg PUBLIC "-//W3C//DTD SVG 1.1//EN" "http://www.w3.org/Graphics/SVG/1.1/DTD/svg11.dtd">
<svg xmlns="http://www.w3.org/2000/svg" width="206" height="231" viewBox="0 0 206 231" fill="none">
<g clip-path="url(#clip0_633_24403)">
<path d="M193.978 48.8544L115.022 3.27032C107.578 -1.02761 98.4216 -1.02761 90.9778 3.27032L12.0222 48.8544C4.57845 53.1423 0 61.087 0 69.6728V160.841C0 169.427 4.57845 177.371 12.0222 181.659L90.9778 227.243C98.4216 231.541 107.578 231.541 115.022 227.243L193.978 181.659C201.422 177.361 206 169.427 206 160.841V69.6728C206 61.087 201.422 53.1423 193.978 48.8544ZM107.338 48.7943L158.643 137.658C160.256 140.453 158.693 142.718 158.172 143.349C157.651 143.98 155.727 145.954 152.682 144.902L110.814 130.525C105.775 128.792 100.235 128.792 95.1956 130.525L53.3284 144.902C50.2828 145.954 48.3492 143.98 47.8382 143.349C47.3173 142.718 45.7544 140.453 47.3674 137.658L98.672 48.7943C99.9744 46.5301 102.138 46.2897 103.01 46.2897C103.882 46.2897 106.046 46.5301 107.348 48.7943H107.338ZM17.1617 140.373L16.8611 81.4445C16.821 73.8505 20.8785 66.8276 27.4707 63.0606L78.6551 33.8567C81.32 32.3339 84.2855 35.3094 82.7426 37.9743L22.762 141.856C21.2292 144.511 17.1717 143.439 17.1516 140.373H17.1617ZM164.373 176.029L114.561 203.319C107.368 207.267 98.652 207.267 91.4487 203.319L41.6368 176.029C38.6212 174.376 38.9519 169.948 42.1678 168.756L94.6546 149.33C100.045 147.336 105.965 147.336 111.345 149.33L163.832 168.756C167.058 169.948 167.379 174.376 164.363 176.029H164.373ZM188.838 140.383C188.818 143.449 184.761 144.521 183.228 141.866L123.247 37.9844C121.715 35.3295 124.68 32.354 127.335 33.8668L178.519 63.0706C185.111 66.8376 189.169 73.8605 189.129 81.4545L188.828 140.383H188.838Z" fill="#1D69F4"/>
</g>
<defs>
<clipPath id="clip0_633_24403">
<rect width="206" height="230.435" fill="white" transform="translate(0 0.0429688)"/>
</clipPath>
</defs>
</svg>